<svg width="94" height="87" viewBox="0 0 94 87" fill="none" xmlns="http://www.w3.org/2000/svg">
<path d="M36.1105 83.3264V61.7733C36.1105 60.6481 37.0626 59.6959 38.1879 59.6959H54.8072C55.9324 59.6959 56.8846 60.6481 56.8846 61.7733V83.3264" fill="#FA51B6"/>
<path d="M79.0436 68.6643V73.3722C79.0436 78.9119 74.5425 83.3264 69.0893 83.3264H23.9923C18.4525 83.3264 14.038 78.8254 14.038 73.3722V47.924" stroke="#4E0F5D" stroke-width="6" stroke-miterlimit="10" stroke-linecap="round" stroke-linejoin="round"/>
<path d="M34.2926 16.4166L31.9555 44.4616C29.3588 45.76 24.3384 47.924 17.7599 48.0971C11.9605 48.1837 7.28631 46.7122 4.25675 45.4138C3.13149 44.8944 2.6987 43.5961 3.21805 42.4708C7.19975 34.5074 11.1814 26.544 15.0766 18.5806C15.6825 17.2822 17.0674 16.4166 18.5389 16.4166H34.2926V16.4166Z" stroke="#4E0F5D" stroke-width="6" stroke-miterlimit="10" stroke-linecap="round" stroke-linejoin="round"/>
<path d="M74.5425 16.4166C76.014 16.4166 77.3124 17.2822 78.0048 18.5806C81.9865 26.544 85.9682 34.5074 89.8634 42.4708C90.3827 43.5961 89.9499 44.8944 88.8247 45.4138C85.7951 46.7122 81.121 48.1837 75.3215 48.0971C68.6565 47.924 63.6361 45.8466 61.1259 44.4616L58.7888 16.5032H74.5425V16.4166Z" stroke="#4E0F5D" stroke-width="6" stroke-miterlimit="10" stroke-linecap="round" stroke-linejoin="round"/>
<path d="M34.2927 16.4166H58.7023L61.0393 44.3751C59.0485 45.6734 53.855 48.6164 46.584 48.703C39.2266 48.703 33.9465 45.6734 31.9556 44.3751C32.7347 35.1133 33.5137 25.765 34.2927 16.4166Z" stroke="#4E0F5D" stroke-width="6" stroke-miterlimit="10" stroke-linecap="round" stroke-linejoin="round"/>
<path d="M77.8317 27.5827C84.62 27.5827 90.123 22.0796 90.123 15.2913C90.123 8.503 84.62 3 77.8317 3C71.0434 3 65.5404 8.503 65.5404 15.2913C65.5404 22.0796 71.0434 27.5827 77.8317 27.5827Z" fill="#BAFEF1" stroke="#4E0F5D" stroke-width="6" stroke-miterlimit="10" stroke-linecap="round" stroke-linejoin="round"/>
<path d="M79.0435 55.4546V47.924" stroke="#4E0F5D" stroke-width="6" stroke-miterlimit="10" stroke-linecap="round" stroke-linejoin="round"/>
</svg>
