<svg width="32" height="32" viewBox="0 0 32 32" fill="none" xmlns="http://www.w3.org/2000/svg">
<g clip-path="url(#clip0_12_199)">
<path d="M16 32.0001C24.8366 32.0001 32 24.8366 32 16.0001C32 7.16351 24.8366 6.10352e-05 16 6.10352e-05C7.16344 6.10352e-05 0 7.16351 0 16.0001C0 24.8366 7.16344 32.0001 16 32.0001Z" fill="#4F085E"/>
<path d="M16.4733 14.2986C16.7034 14.0395 16.8879 13.7762 17.1284 13.5544C17.4696 13.2218 17.8735 12.9604 18.3166 12.7853C18.7597 12.6102 19.2331 12.5249 19.7095 12.5344C20.2584 12.5249 20.8061 12.5912 21.3369 12.7313C22.5518 13.0838 23.2566 13.9193 23.5946 15.1051C23.8185 15.9938 23.9197 16.9089 23.8952 17.8251C23.8952 19.7593 23.8952 21.6915 23.8952 23.6299C23.8952 23.8102 23.8454 23.8579 23.6671 23.8559C22.6693 23.8476 21.6735 23.8476 20.6797 23.8559C20.5035 23.8559 20.4724 23.804 20.4724 23.6485C20.4724 21.809 20.4724 19.9694 20.4724 18.1298C20.4828 17.6677 20.4283 17.2065 20.3107 16.7595C20.0723 15.9302 19.4814 15.5156 18.6169 15.5591C17.4373 15.6213 16.8216 16.208 16.6723 17.4084C16.6357 17.6944 16.6177 17.9825 16.6184 18.2708C16.6184 20.0599 16.6184 21.849 16.6184 23.6382C16.6184 23.8165 16.5728 23.8683 16.3904 23.8662C15.3891 23.8662 14.3856 23.8662 13.3822 23.8662C13.2205 23.8662 13.1749 23.8248 13.1749 23.6589C13.1749 20.118 13.1749 16.5763 13.1749 13.034C13.1749 12.8578 13.2309 12.8267 13.3968 12.8267C14.3504 12.835 15.3034 12.835 16.2556 12.8267C16.4298 12.8267 16.4754 12.8827 16.4629 13.0485C16.4671 13.4507 16.4733 13.8737 16.4733 14.2986Z" fill="#FEFEFE"/>
<path d="M11.0166 18.3455C11.0166 20.0973 11.0166 21.8491 11.0166 23.6009C11.0166 23.7958 10.9689 23.8559 10.7678 23.8538C9.77065 23.8414 8.77555 23.8538 7.78043 23.8538C7.6208 23.8538 7.57312 23.8144 7.57312 23.6465C7.57312 20.0973 7.57312 16.5494 7.57312 13.003C7.57312 12.8558 7.61044 12.7956 7.76592 12.806C8.77554 12.806 9.78517 12.806 10.7948 12.806C10.9897 12.806 11.0145 12.8786 11.0145 13.0465C11.0132 14.8128 11.0139 16.5791 11.0166 18.3455Z" fill="#FEFEFE"/>
<path d="M11.2905 9.29213C11.2926 9.68596 11.1776 10.0715 10.9602 10.3999C10.7428 10.7283 10.4328 10.9848 10.0695 11.1367C9.70613 11.2887 9.30585 11.3293 8.9194 11.2534C8.53294 11.1775 8.17771 10.9886 7.89879 10.7105C7.61987 10.4325 7.42982 10.0779 7.35273 9.69165C7.27564 9.30543 7.31499 8.90502 7.4658 8.5412C7.61661 8.17738 7.87208 7.86655 8.19979 7.64812C8.52751 7.4297 8.91271 7.31353 9.30654 7.31435C9.83082 7.31706 10.333 7.5261 10.7043 7.89625C11.0756 8.26639 11.2862 8.76786 11.2905 9.29213Z" fill="#FEFEFE"/>
</g>
<defs>
<clipPath id="clip0_12_199">
<rect width="32" height="32" fill="white"/>
</clipPath>
</defs>
</svg>
