<svg width="32" height="32" viewBox="0 0 32 32" fill="none" xmlns="http://www.w3.org/2000/svg">
<path d="M16 32.0001C24.8366 32.0001 32 24.8366 32 16.0001C32 7.16351 24.8366 6.10352e-05 16 6.10352e-05C7.16344 6.10352e-05 0 7.16351 0 16.0001C0 24.8366 7.16344 32.0001 16 32.0001Z" fill="#4F085E"/>
<path d="M15.9979 13.4085C14.5709 13.4085 13.4064 14.573 13.4064 16.0001C13.4064 17.4271 14.5709 18.5916 15.9979 18.5916C17.4249 18.5916 18.5894 17.4271 18.5894 16.0001C18.5894 14.573 17.4249 13.4085 15.9979 13.4085ZM23.7706 16.0001C23.7706 14.9269 23.7803 13.8634 23.72 12.7922C23.6598 11.5479 23.3759 10.4436 22.4661 9.53375C21.5543 8.62194 20.4519 8.34003 19.2077 8.27976C18.1345 8.2195 17.0711 8.22922 15.9999 8.22922C14.9267 8.22922 13.8633 8.2195 12.792 8.27976C11.5478 8.34003 10.4435 8.62388 9.53367 9.53375C8.62187 10.4456 8.33997 11.5479 8.2797 12.7922C8.21943 13.8654 8.22915 14.9288 8.22915 16.0001C8.22915 17.0713 8.21943 18.1367 8.2797 19.2079C8.33997 20.4522 8.62381 21.5565 9.53367 22.4664C10.4455 23.3782 11.5478 23.6601 12.792 23.7204C13.8652 23.7806 14.9286 23.7709 15.9999 23.7709C17.073 23.7709 18.1365 23.7806 19.2077 23.7204C20.4519 23.6601 21.5562 23.3763 22.4661 22.4664C23.3779 21.5546 23.6598 20.4522 23.72 19.2079C23.7822 18.1367 23.7706 17.0732 23.7706 16.0001ZM15.9979 19.9876C13.7913 19.9876 12.0105 18.2067 12.0105 16.0001C12.0105 13.7934 13.7913 12.0126 15.9979 12.0126C18.2045 12.0126 19.9853 13.7934 19.9853 16.0001C19.9853 18.2067 18.2045 19.9876 15.9979 19.9876ZM20.1486 12.7805C19.6334 12.7805 19.2174 12.3645 19.2174 11.8493C19.2174 11.3341 19.6334 10.918 20.1486 10.918C20.6638 10.918 21.0799 11.3341 21.0799 11.8493C21.08 11.9716 21.0561 12.0928 21.0093 12.2058C20.9626 12.3189 20.894 12.4216 20.8075 12.5081C20.721 12.5946 20.6183 12.6632 20.5052 12.7099C20.3921 12.7567 20.271 12.7807 20.1486 12.7805Z" fill="white"/>
</svg>
