<svg width="32" height="32" viewBox="0 0 32 32" fill="none" xmlns="http://www.w3.org/2000/svg">
<path d="M16 32.0001C24.8366 32.0001 32 24.8366 32 16.0001C32 7.16351 24.8366 6.10352e-05 16 6.10352e-05C7.16344 6.10352e-05 0 7.16351 0 16.0001C0 24.8366 7.16344 32.0001 16 32.0001Z" fill="#4F085E"/>
<path d="M16.8268 7.329C17.745 7.31435 18.6579 7.32303 19.5698 7.31435C19.6251 8.42238 20.0113 9.55104 20.7974 10.3344C21.582 11.1374 22.6917 11.5049 23.7715 11.6292V14.544C22.7596 14.5098 21.743 14.2926 20.8248 13.8431C20.4249 13.6563 20.0523 13.4158 19.6877 13.1699C19.6829 15.285 19.6961 17.3974 19.6745 19.5038C19.6198 20.5157 19.2962 21.5228 18.7258 22.3566C17.8081 23.7448 16.2153 24.6498 14.5794 24.678C13.576 24.7372 12.5736 24.4549 11.7185 23.9348C10.3015 23.0727 9.30432 21.4945 9.15909 19.8007C9.1408 19.442 9.13799 19.0826 9.15067 18.7236C9.27696 17.3463 9.93733 16.0288 10.9624 15.1324C12.1242 14.0885 13.7517 13.5912 15.2756 13.8854C15.2898 14.9576 15.2482 16.0288 15.2482 17.101C14.552 16.8686 13.7385 16.9337 13.1303 17.3697C12.6852 17.6722 12.3489 18.1172 12.1731 18.6362C12.0279 19.0032 12.0695 19.4109 12.0779 19.8007C12.2447 20.9886 13.3518 21.9869 14.5336 21.8789C15.3171 21.8702 16.068 21.4012 16.4763 20.7144C16.6084 20.4739 16.7563 20.228 16.7642 19.9451C16.8331 18.6504 16.8057 17.361 16.8141 16.0662C16.8199 13.1482 16.8057 10.2383 16.8273 7.32955L16.8268 7.329Z" fill="white"/>
</svg>
